<?xml version="1.0" encoding="UTF-8"?>
<svg width="200px" height="300px" viewBox="0 0 200 300" version="1.1" xmlns="http://www.w3.org/2000/svg" xmlns:xlink="http://www.w3.org/1999/xlink">
    <!-- Generator: Sketch 54.1 (76490) - https://sketchapp.com -->
    <title>Create</title>
    <desc>Created with Sketch.</desc>
    <g stroke="none" stroke-width="1" fill="none" fill-rule="evenodd">
        <circle fill="#00D8AF" cx="100" cy="100" r="100"></circle>
        <text font-family="Helvetica" font-size="14" font-weight="normal" fill="#000000">
            <tspan x="11.3037109" y="240">Create or import time entries</tspan>
        </text>
        <g transform="translate(113.000000, 76.000000)" fill="#000000" fill-rule="nonzero">
            <path d="M1.5625,28.125 C0.703125,28.125 0,28.828125 0,29.6875 L0,32.8125 C0,33.671875 0.703125,34.375 1.5625,34.375 L12.5,34.375 L12.5,28.125 L1.5625,28.125 Z M49.3164062,10.2539062 L39.7558594,0.68359375 C39.3164062,0.244140625 38.7207031,0 38.0957031,0 L37.5,0 L37.5,12.5 L50,12.5 L50,11.9042969 C50,11.2890625 49.7558594,10.6933594 49.3164062,10.2539062 Z M34.375,13.28125 L34.375,0 L14.84375,0 C13.5449219,0 12.5,1.04492188 12.5,2.34375 L12.5,28.125 L25,28.125 L25,21.7578125 C25,20.3613281 26.6894531,19.6679688 27.6757812,20.6542969 L37.0117188,30.078125 C37.65625,30.7324219 37.65625,31.7773437 37.0117188,32.421875 L27.6660156,41.8359375 C26.6796875,42.8222656 24.9902344,42.1289062 24.9902344,40.7324219 L24.9902344,34.375 L12.5,34.375 L12.5,47.65625 C12.5,48.9550781 13.5449219,50 14.84375,50 L47.65625,50 C48.9550781,50 50,48.9550781 50,47.65625 L50,15.625 L36.71875,15.625 C35.4296875,15.625 34.375,14.5703125 34.375,13.28125 Z"></path>
        </g>
        <g transform="translate(32.000000, 75.500000)" fill="#000000" fill-rule="nonzero">
            <path d="M46.4285714,19.6428571 L30.3571429,19.6428571 L30.3571429,3.57142857 C30.3571429,1.59933036 28.7578125,0 26.7857143,0 L23.2142857,0 C21.2421875,0 19.6428571,1.59933036 19.6428571,3.57142857 L19.6428571,19.6428571 L3.57142857,19.6428571 C1.59933036,19.6428571 0,21.2421875 0,23.2142857 L0,26.7857143 C0,28.7578125 1.59933036,30.3571429 3.57142857,30.3571429 L19.6428571,30.3571429 L19.6428571,46.4285714 C19.6428571,48.4006696 21.2421875,50 23.2142857,50 L26.7857143,50 C28.7578125,50 30.3571429,48.4006696 30.3571429,46.4285714 L30.3571429,30.3571429 L46.4285714,30.3571429 C48.4006696,30.3571429 50,28.7578125 50,26.7857143 L50,23.2142857 C50,21.2421875 48.4006696,19.6428571 46.4285714,19.6428571 Z"></path>
        </g>
    </g>
</svg>