<?xml version="1.0" encoding="UTF-8"?>
<svg width="200px" height="200px" viewBox="0 0 200 200" version="1.1" xmlns="http://www.w3.org/2000/svg" xmlns:xlink="http://www.w3.org/1999/xlink">
    <!-- Generator: Sketch 54.1 (76490) - https://sketchapp.com -->
    <title>Submit</title>
    <desc>Created with Sketch.</desc>
    <g stroke="none" stroke-width="1" fill="none" fill-rule="evenodd">
        <circle fill="#FFB500" cx="100" cy="100" r="100"></circle>
        <g transform="translate(49.000000, 60.000000)" fill="#000000" fill-rule="nonzero">
            <path d="M88.7906584,3.35632324 C88.5815754,2.3840332 87.6202734,1.42272949 86.6448967,1.21398926 C80.9852344,0 76.5539648,0 72.1419381,0 C53.9956459,0 43.1137072,9.70367344 34.9896762,22.5 L16.670693,22.5 C13.7970861,22.5027457 10.4205129,24.5874023 9.13202578,27.1554574 L0.442198828,44.5248422 C0.173652774,45.1171863 0.0234387011,45.7562968 -3.15303339e-15,46.40625 C0.000841392984,48.7362522 1.88977073,50.6247236 4.21977305,50.625 L22.4676879,50.625 L18.5170799,54.574585 C16.5192891,56.5716938 16.2326145,60.2449031 18.5170799,62.5286865 L27.4650855,71.4770508 C29.4261416,73.4436035 33.1175408,73.7896729 35.4239789,71.4770508 L39.3745869,67.5274658 L39.3745869,85.78125 C39.3754283,88.1112515 41.2643566,89.9997226 43.5943582,90 C44.2444466,89.9759363 44.8836613,89.8257522 45.476448,89.5578012 L62.8310391,80.8758545 C65.4025219,79.5932016 67.4906063,76.2176514 67.4906063,73.3419809 L67.4906063,54.9838266 C80.2518908,46.8429574 89.9967463,35.9280387 89.9967463,17.8775016 C90.0132293,13.4472656 90.0132293,9.01702969 88.7906584,3.35632324 Z M67.5070893,29.53125 C63.6240585,29.5303113 60.4769134,26.3818979 60.4775392,22.4988671 C60.4781649,18.6158363 63.6263247,15.4684374 67.5093555,15.4687502 C71.3923864,15.4690631 74.5400389,18.6169691 74.5400391,22.5 C74.5377865,26.3829824 71.3900721,29.5299361 67.5070893,29.53125 L67.5070893,29.53125 Z"></path>
        </g>
    </g>
</svg>