<?xml version="1.0" encoding="UTF-8"?>
<svg width="16px" height="16px" viewBox="0 0 16 16" version="1.1" xmlns="http://www.w3.org/2000/svg" xmlns:xlink="http://www.w3.org/1999/xlink">
    <!-- Generator: Sketch 54.1 (76490) - https://sketchapp.com -->
    <title>jira-disconnected</title>
    <desc>Created with Sketch.</desc>
    <g stroke="none" stroke-width="1" fill="none" fill-rule="evenodd">
        <path d="M15.2383099,0.0157746479 L7.64169014,0.0157746479 C7.64169014,0.924832183 8.00281184,1.79665709 8.64561259,2.43945783 C9.28841334,3.08225858 10.1602382,3.44338028 11.0692958,3.44338028 L12.4687324,3.44338028 L12.4687324,4.79549296 C12.4699676,6.684113 13.99871,8.21587869 15.8873281,8.22084507 L15.8873239,0.676056338 C15.8885934,0.315251494 15.5990831,0.0207149773 15.2383099,0.0157746479 Z" fill="#D52D2D" fill-rule="nonzero"></path>
        <path d="M11.4794366,3.79943662 L3.8828169,3.79943662 C3.8828169,5.69245094 5.41740822,7.22704225 7.31042254,7.22704225 L8.70985915,7.22704225 L8.70985915,8.57915493 C8.71110218,10.4716541 10.2449656,12.0055175 12.1374648,12.0067606 L12.1374648,4.45746479 C12.1374648,4.28294487 12.068137,4.11557283 11.9447328,3.99216861 C11.8213286,3.86876439 11.6539565,3.79943662 11.4794366,3.79943662 Z" fill="#D52D2D" fill-rule="nonzero"></path>
        <path d="M7.71830986,7.58309859 L0.112676056,7.58309859 C0.113271352,8.49392718 0.476131642,9.36711461 1.12124085,10.0101101 C1.76635006,10.6531056 2.64072366,11.0130982 3.5515493,11.0107042 L4.95098592,11.0107042 L4.95098592,12.3628169 C4.95098592,14.2558312 6.48557723,15.7904225 8.37859155,15.7904225 L8.37859155,8.24338028 C8.37859155,7.87871677 8.08297337,7.58309859 7.71830986,7.58309859 Z" fill="#D52D2D" fill-rule="nonzero"></path>
    </g>
</svg>