<?xml version="1.0" encoding="UTF-8"?>
<svg width="16px" height="16px" viewBox="0 0 16 16" version="1.1" xmlns="http://www.w3.org/2000/svg" xmlns:xlink="http://www.w3.org/1999/xlink">
    <!-- Generator: Sketch 54.1 (76490) - https://sketchapp.com -->
    <title>tempo-connected</title>
    <desc>Created with Sketch.</desc>
    <g stroke="none" stroke-width="1" fill="none" fill-rule="evenodd">
        <path d="M16,7.99572375 C16,12.4163634 12.4210181,16 8.00612008,16 C7.89515358,16 7.78471517,15.9977361 7.6748484,15.9932518 L6.90625,14.6599849 C7.26417488,14.7187644 7.6315824,14.7493318 8.00612008,14.7493318 C11.7311902,14.7493318 14.7509563,11.7256385 14.7509563,7.99572375 C14.7509563,7.42851793 14.6811239,6.87764352 14.5495982,6.35125025 L15.3827933,4.90625 C15.7803639,5.8568719 16,6.9006151 16,7.99572375 Z" fill="#027AFF" fill-rule="nonzero"></path>
        <path d="M1.24976561,7.99717752 C1.24976561,11.113899 3.36464738,13.7369116 6.23830447,14.5107906 L7.0625,15.9375 C3.0860836,15.4742552 0,12.095932 0,7.99717752 C0,6.43664513 0.4473521,4.98054485 1.22087218,3.75 L2.75521022,3.75 C1.81384725,4.90960057 1.24976561,6.387548 1.24976561,7.99717752 Z" fill="#027AFF" fill-rule="nonzero"></path>
        <path d="M8.00021193,0 C11.106825,0 13.7998505,1.76622879 15.125,4.34685035 L14.3489659,5.6875 C13.4089848,3.09750962 10.9212863,1.24677542 8.00021193,1.24677542 C6.12466305,1.24677542 4.42777782,2.00975971 3.2045248,3.24151778 L1.5625,3.24152972 C3.01955225,1.2751384 5.36058615,0 8.00021193,0 Z" fill="#027AFF" fill-rule="nonzero"></path>
        <path d="M6.88027325,11.0884492 L4.2241731,8.44120703 C4.17527562,8.39247265 4.17527562,8.3134586 4.2241731,8.26472423 L5.4636865,7.02934452 C5.51258395,6.98061015 5.5918624,6.98061015 5.64075985,7.02934452 L6.96880992,8.35296562 L10.4217401,4.91155078 C10.4706376,4.8628164 10.5499161,4.8628164 10.5988135,4.91155078 L11.8383269,6.14693047 C11.8872244,6.19566485 11.8872244,6.2746789 11.8383269,6.32341328 L7.0573466,11.0884492 C7.00844915,11.1371836 6.92917072,11.1371836 6.88027325,11.0884492 Z" fill="#027AFF" fill-rule="nonzero"></path>
    </g>
</svg>